PathFileType	4	(X/Y/Z)	C:/Users/beibeiliu/ov580/test_trc/User1\sequence.28_training_dense_right.trc
DataRate	CameraRate	NumFrames	NumMarkers	Units	OrigDataRate	OrigDataStartFrame	OrigNumFrames
120	120	10	19	mm	120	213	243
Frame#	Time	ThumbCMC			ThumbMCP			ThumbIP			ThumbTip			IndexMCP			IndexPIP			IndexTip			MiddleMCP			MiddlePIP			MiddleTip			RingMCP			RingPIP			RingTip			PinkyMCP			PinkyPIP			PinkyTip			BackHand1			BackHand2			BackHand3	
		X0	Y0	Z0	X1	Y1	Z1	X2	Y2	Z2	X3	Y3	Z3	X4	Y4	Z4	X5	Y5	Z5	X6	Y6	Z6	X7	Y7	Z7	X8	Y8	Z8	X9	Y9	Z9	X10	Y10	Z10	X11	Y11	Z11	X12	Y12	Z12	X13	Y13	Z13	X14	Y14	Z14	X15	Y15	Z15	X16	Y16	Z16	X17	Y17	Z17	X18	Y18	Z18	
212	1.76667	236.779	-2.62637	65.9123	235.135	19.8936	50.559	245.963	39.9398	31.8599	250.424	57.4721	18.159	240.841	-33.6673	-13.5281	241.795	-37.7977	-36.8789	241.728	-42.6454	-66.4613	222.641	-62.9584	-16.943	225.76	-68.1087	-40.9535	222.53	-77.6924	-70.7652	199.94	-74.9783	-7.83352	203.798	-84.5132	-34.2082	200.542	-91.3447	-59.0751	167.664	-73.4006	7.45489	161.257	-83.3574	-7.55551	155.947	-99.0795	-24.0852	203.458	-63.8305	42.3907	203.08	-63.7431	74.0385	230.32	-43.7779	55.7514	
213	1.775	236.179	-6.14101	67.6675	240.959	20.2567	48.4846	247.707	38.0976	30.3382	254.018	55.6316	16.2352	239.01	-33.8382	-10.9607	241.035	-39.3181	-37.7936	240.666	-44.7133	-67.3099	220.872	-61.7126	-14.0198	223.202	-71.2359	-42.6678	218.279	-80.8642	-74.9937	202.349	-72.1935	-8.30127	201.311	-83.942	-32.0724	201.324	-90.8102	-61.292	168.548	-71.8587	9.03295	158.29	-83.2239	-6.37108	156.888	-96.4057	-24.7496	201.53	-65.2166	44.7151	200.854	-66.8253	77.5438	230.518	-44.9981	59.2111	
214	1.78333	237.295	-6.0968	69.1174	237.63	17.0298	51.7111	249.046	37.8975	31.6436	254	55.286	22.7387	238.466	-35.1356	-13.0473	238.252	-41.6178	-38.6134	238.517	-45.1776	-66.3501	221.181	-60.9391	-16.502	219.425	-71.7539	-41.4447	220.502	-78.3433	-73.4333	201.332	-72.3623	-8.5963	201.108	-85.3076	-34.1447	198.594	-91.5747	-57.5115	165.926	-73.3555	9.67125	158.806	-83.5001	-8.91334	154.81	-97.5034	-26.2169	199.285	-67.1514	39.9426	199.878	-70.6342	74.1317	227.013	-47.0222	57.6742	
215	1.79167	236.865	-6.86202	66.6254	239.171	18.4981	48.5038	246.755	36.3338	33.4884	254.776	55.3259	24.2428	236.463	-37.5428	-14.9039	239.793	-42.4264	-40.77	237.359	-46.2602	-66.1986	221.6	-61.0202	-19.2416	220.718	-70.9456	-42.5269	218.173	-80.845	-73.6292	197.141	-73.8529	-7.97888	201.915	-84.3902	-36.0724	199.745	-89.3841	-57.1122	167.44	-73.5393	8.26422	157.605	-83.8719	-4.68726	155.32	-97.7291	-22.1269	200.619	-65.2177	42.1395	201.361	-68.3914	74.5573	231.142	-46.5455	54.8336	
216	1.8	237.517	-4.29145	66.4288	234.641	19.5689	49.5163	241.889	39.065	30.7783	250.947	58.6357	23.3407	237.574	-34.9736	-13.364	238.674	-41.0206	-39.7733	236.063	-47.075	-66.3608	220.565	-59.3158	-15.3231	219.799	-71.6674	-46.5731	221.79	-77.1677	-73.497	200.415	-72.854	-9.49817	200.168	-83.8303	-32.7758	199.906	-89.8665	-61.2449	167.213	-73.0988	9.08379	159.653	-83.4331	-9.19172	151.515	-100.359	-25.6742	202.593	-65.3906	39.2518	201.076	-70.3692	72.1137	227.376	-46.3288	57.406	
217	1.80833	234.578	-3.16137	66.9308	232.686	23.4372	51.8102	238.58	44.5515	32.2871	239.764	61.1469	24.8887	239.081	-32.2467	-12.8833	240.571	-37.6997	-40.3106	237.109	-44.2933	-66.9848	218.974	-61.3244	-18.1928	219.56	-70.735	-44.6893	218.793	-78.7474	-75.5962	199.989	-72.1629	-9.17305	198.925	-84.5557	-34.2802	200.343	-88.72	-59.4428	166.954	-73.192	10.3232	159	-83.3904	-5.78802	157.346	-97.6461	-24.6386	199.408	-63.7705	42.0764	202.166	-69.5865	71.696	228.211	-44.7277	55.0462	
218	1.81667	233.56	-2.09489	66.3968	227.799	26.2553	49.5666	231.598	48.4481	32.2506	233.457	67.0009	26.0998	237.814	-30.3016	-12.7585	239.952	-35.356	-40.8734	236.234	-44.0164	-67.5905	221.609	-57.9854	-16.6505	220.434	-70.1215	-45.2316	219.667	-77.9361	-74.7197	200.055	-71.1842	-9.37408	199.305	-83.7744	-31.0372	198.159	-87.9539	-58.3264	170.518	-71.1559	9.61634	159.59	-82.7539	-2.50321	156.965	-96.8335	-27.7283	202.967	-64.3358	43.5433	205.997	-67.3912	74.2447	228.147	-45.5869	54.3302	
219	1.825	230.641	-0.574554	66.5785	223.976	29.7899	51.7315	224.051	50.7381	32.8857	222.936	69.881	26.6408	234.169	-30.3337	-11.857	237.31	-35.9516	-41.7339	236.514	-41.3202	-64.3874	220.988	-58.1804	-17.3901	220.805	-66.7464	-43.1964	220.495	-73.7403	-72.3113	198.319	-71.3849	-8.24634	200.836	-80.475	-33.3949	199.422	-86.0178	-60.0286	169.61	-71.1996	6.90353	161.814	-79.0715	-5.0091	156.348	-94.3609	-24.0925	201.185	-62.5677	41.6655	205.354	-65.156	73.4993	229.191	-41.0441	57.2035	
220	1.83333	232.107	3.19276	65.7779	217.317	29.9405	48.1473	215.049	52.9199	34.6433	212.596	72.7125	23.6965	238.255	-26.7329	-14.6789	240.017	-32.0003	-42.592	239.767	-37.3458	-66.1678	219.665	-57.6193	-17.646	223.244	-64.1347	-47.1044	217.811	-72.646	-73.1349	199.547	-66.4352	-4.72605	199.067	-80.0448	-33.4998	198.14	-83.351	-60.1482	169.187	-67.8693	7.27266	157.726	-81.5175	-7.02552	158.369	-92.6929	-24.7988	199.879	-62.3235	40.6715	204.7	-63.5058	75.4556	229.118	-40.7792	50.9912	
221	1.84167	227.66	4.51663	63.3097	210.73	31.8712	50.5113	204.153	49.9685	34.2864	199.099	71.5302	21.5256	235.289	-27.2637	-14.6864	236.6	-31.0463	-38.6027	239.596	-33.9073	-64.3543	218.169	-54.1888	-15.5602	223.902	-60.3739	-47.7006	219.18	-68.5367	-74.4855	197.017	-65.0419	-5.1958	198.386	-78.4314	-35.7351	198.756	-80.3547	-59.6932	165.707	-68.7658	11.0514	160.517	-76.0594	-6.19181	154.818	-91.9857	-21.9545	201.688	-61.3602	42.5889	205.463	-62.6319	75.0196	229.537	-41.6724	54.3397	
